<svg width="91" height="91" viewBox="0 0 91 91" fill="none" xmlns="http://www.w3.org/2000/svg">
<circle cx="45.6113" cy="45.8843" r="43.4199" stroke="white" stroke-width="3"/>
<path fill-rule="evenodd" clip-rule="evenodd" d="M33.9692 20.5425C33.3722 19.9682 32.4042 19.9682 31.8072 20.5425C31.2101 21.1169 31.2101 22.048 31.8072 22.6223L56.0135 45.9071L31.8545 69.1464C31.2575 69.7207 31.2575 70.6518 31.8545 71.2261C32.4515 71.8004 33.4195 71.8004 34.0166 71.2261L58.7788 47.4066C58.994 47.3365 59.1962 47.2188 59.3677 47.0538C59.6332 46.7985 59.7806 46.4726 59.81 46.1389C59.9478 45.6474 59.8161 45.1006 59.4151 44.7148C59.2085 44.5162 58.9576 44.3862 58.693 44.325L33.9692 20.5425Z" fill="white"/>
</svg>
