<svg width="84" height="84" viewBox="0 0 84 84" fill="none" xmlns="http://www.w3.org/2000/svg">
<g clip-path="url(#clip0_4_1266)">
<path d="M42.0666 83.3737C64.9909 83.3737 83.5746 64.7899 83.5746 41.8657C83.5746 18.9414 64.9909 0.357666 42.0666 0.357666C19.1424 0.357666 0.558594 18.9414 0.558594 41.8657C0.558594 64.7899 19.1424 83.3737 42.0666 83.3737Z" fill="#079E77"/>
<path d="M29.4242 37.6856C31.7328 37.6856 33.6043 35.8141 33.6043 33.5055C33.6043 31.1969 31.7328 29.3254 29.4242 29.3254C27.1156 29.3254 25.2441 31.1969 25.2441 33.5055C25.2441 35.8141 27.1156 37.6856 29.4242 37.6856Z" fill="white"/>
<path d="M54.5053 37.6856C56.8138 37.6856 58.6853 35.8141 58.6853 33.5055C58.6853 31.1969 56.8138 29.3254 54.5053 29.3254C52.1967 29.3254 50.3252 31.1969 50.3252 33.5055C50.3252 35.8141 52.1967 37.6856 54.5053 37.6856Z" fill="white"/>
<path d="M41.9647 66.9759C28.1168 66.9759 16.8545 55.7137 16.8545 41.8657H21.148C21.148 53.343 30.4875 62.6824 41.9647 62.6824C53.442 62.6824 62.7814 53.343 62.7814 41.8657H67.0749C67.0749 55.7137 55.8127 66.9759 41.9647 66.9759Z" fill="white"/>
</g>
<defs>
<clipPath id="clip0_4_1266">
<rect width="83.0101" height="83.0101" fill="white" transform="translate(0.558594 0.357666)"/>
</clipPath>
</defs>
</svg>
