<svg width="231" height="56" viewBox="0 0 231 56" fill="none" xmlns="http://www.w3.org/2000/svg">
<g clip-path="url(#clip0_8_295)">
<path d="M0 1.0293H10.4991V23.5723H35.2052V1.0293H45.706V55.3812H35.2052V32.8382H10.4991V55.3812H0" fill="#212121"/>
<path d="M59.7723 37.4696C60.1326 40.5577 61.2653 42.9772 63.1687 44.7265C65.0721 46.4757 67.5687 47.3521 70.6568 47.3521C74.8256 47.3521 77.5802 45.2928 78.9173 41.1759H88.9539C88.0273 45.653 86.0334 49.2438 82.9705 51.9465C79.9076 54.6491 75.7773 55.9996 70.5797 55.9996C66.307 55.9996 62.6275 55.0982 59.5394 53.297C56.4514 51.4957 54.1089 49.0125 52.5138 45.8474C50.9187 42.6823 50.1211 39.0664 50.1211 34.9998C50.1211 30.9332 50.9438 27.0861 52.5909 23.921C54.2379 20.7559 56.5921 18.3112 59.655 16.5871C62.718 14.8629 66.307 14 70.4256 14C73.7717 14 76.8983 14.7071 79.8053 16.1229C82.7141 17.5388 85.0817 19.7773 86.9081 22.8403C88.7361 25.9032 89.6493 29.7754 89.6493 34.4603C89.6493 35.2847 89.5722 36.2883 89.418 37.4713H59.7707L59.7723 37.4696ZM77.1429 24.422C75.598 22.8269 73.4633 22.0293 70.7355 22.0293C64.8677 22.0293 61.3423 24.9113 60.1577 30.6769H79.7685C79.5624 28.1032 78.6877 26.0188 77.1429 24.4237V24.422Z" fill="#212121"/>
<path d="M131.912 31.2935V55.3814H122.03V34.6898C122.03 30.263 121.438 27.2018 120.254 25.5027C119.069 23.8037 117.14 22.9542 114.463 22.9542C112.558 22.9542 110.77 23.6228 109.098 24.9615C107.425 26.3003 106.073 28.1786 105.045 30.5981C104.016 33.0176 103.5 35.7454 103.5 38.7816V55.3814H93.6172V14.6166H103.5V17.1651C103.5 18.3498 103.396 19.3534 103.191 20.1761C102.985 21.0005 102.677 21.8483 102.265 22.7247C102.007 23.3429 101.879 23.7534 101.879 23.9595C101.879 24.422 102.085 24.68 102.498 24.732H102.729C103.089 24.732 103.397 24.4237 103.655 23.8054C104.788 21.2837 106.537 19.0183 108.905 17.011C111.273 15.0037 114.052 14 117.243 14C121.772 14 125.349 15.4661 127.975 18.4C130.6 21.3339 131.912 25.6318 131.912 31.2935Z" fill="#212121"/>
<path d="M212.909 24.3446C214.556 27.5366 215.378 31.0871 215.378 34.9995C215.378 38.912 214.556 42.4625 212.909 45.6544C211.261 48.8447 208.894 51.3681 205.806 53.2213C202.718 55.0745 199.115 56.001 194.997 56.001C190.878 56.001 187.276 55.0745 184.188 53.2213C181.1 51.3681 178.732 48.8464 177.085 45.6544C175.438 42.4625 174.615 38.912 174.615 34.9995C174.615 31.0871 175.438 27.5366 177.085 24.3446C178.732 21.1544 181.1 18.631 184.188 16.7778C187.276 14.9246 190.878 13.998 194.997 13.998C199.115 13.998 202.718 14.9246 205.806 16.7778C208.894 18.631 211.261 21.1527 212.909 24.3446ZM205.498 34.9995C205.498 31.5512 204.558 28.681 202.679 26.3905C200.801 24.1 198.241 22.9556 194.997 22.9556C191.753 22.9556 189.193 24.1 187.314 26.3905C185.436 28.681 184.496 31.5496 184.496 34.9995C184.496 38.4495 185.436 41.3181 187.314 43.6086C189.193 45.8991 191.753 47.0435 194.997 47.0435C198.241 47.0435 200.801 45.8991 202.679 43.6086C204.558 41.3181 205.498 38.4495 205.498 34.9995Z" fill="#212121"/>
<path d="M147.058 1.0293H137.176V55.3812H147.058V1.0293Z" fill="#212121"/>
<path d="M175.59 55.4209H165.423C165.363 54.9568 165.303 54.486 165.239 54.0419C164.612 49.7827 162.412 44.7627 159.095 41.74C157.003 39.8332 154.23 38.7089 152.682 37.531C150.916 36.1855 148.795 34.5954 148.795 31.3615C148.795 28.8851 150.29 27.3703 152.047 25.6278C155.005 22.6938 159.165 17.2701 161.207 14.5791H172.052C166.449 23.3557 159.805 29.0526 157.064 30.2925C156.677 30.4685 155.224 30.3612 155.251 31.2912C155.276 32.2362 156.427 31.9731 157.047 32.0468C159.839 32.3836 162.766 33.5884 164.185 34.4915C170.894 38.8362 174.525 46.5421 175.478 54.2196L175.572 54.9618C175.599 55.1126 175.614 55.2651 175.592 55.4209H175.59Z" fill="#212121"/>
<path d="M182.574 4.883C183.037 5.21476 183.409 5.65711 183.694 6.20669C183.978 6.75627 184.124 7.31591 184.129 7.88393C184.134 8.45194 183.992 8.97975 183.7 9.46566C183.409 9.95157 182.973 10.3437 182.397 10.6436C181.82 10.9435 181.249 11.0708 180.683 11.0306C180.118 10.9887 179.603 10.8028 179.141 10.4693C178.679 10.1376 178.307 9.69521 178.022 9.14563C177.737 8.59604 177.591 8.0364 177.586 7.46839C177.581 6.90037 177.723 6.37257 178.015 5.88666C178.307 5.40074 178.742 5.00866 179.319 4.70874C179.895 4.40881 180.466 4.28147 181.033 4.32168C181.597 4.36357 182.112 4.54956 182.574 4.883ZM183.187 7.91241C183.171 7.4885 183.053 7.06793 182.837 6.65071C182.621 6.2335 182.345 5.89504 182.008 5.637C181.671 5.37896 181.302 5.22816 180.9 5.18627C180.498 5.14438 180.096 5.22649 179.696 5.43426C179.295 5.64203 178.995 5.92184 178.797 6.27539C178.601 6.62893 178.511 7.01766 178.528 7.4399C178.544 7.86382 178.662 8.28439 178.878 8.7016C179.094 9.11882 179.371 9.45728 179.707 9.71532C180.044 9.97335 180.413 10.1242 180.815 10.166C181.217 10.2079 181.619 10.1258 182.02 9.91806C182.42 9.71029 182.72 9.43047 182.916 9.07693C183.114 8.72338 183.203 8.33465 183.186 7.91241H183.187Z" fill="#212121"/>
<path d="M188.974 1.99221C189.436 2.2469 189.74 2.67919 189.887 3.28742C189.988 3.70296 189.921 4.09672 189.688 4.46702C189.455 4.83732 189.103 5.11546 188.632 5.2981C188.575 5.32491 188.552 5.35842 188.562 5.40031C188.575 5.45393 188.614 5.47403 188.681 5.45728C189.088 5.37853 189.396 5.38355 189.606 5.47403C189.815 5.56451 189.984 5.70526 190.113 5.89627L191.234 7.62378L190.097 7.8969L189.349 6.4911C189.185 6.17944 188.966 5.99011 188.687 5.91973C188.409 5.84936 188.027 5.87282 187.54 5.99011L186.546 6.22804L187.119 8.61236L186.181 8.83689L184.654 2.4798L187.02 1.91179C187.863 1.70904 188.515 1.73585 188.977 1.99054L188.974 1.99221ZM188.895 4.18888C188.986 3.97273 189.006 3.75323 188.952 3.53038C188.862 3.1517 188.679 2.88864 188.404 2.74119C188.129 2.59374 187.776 2.57196 187.344 2.67584L185.782 3.05117L186.355 5.43549L187.7 5.11211C187.989 5.04341 188.238 4.92612 188.448 4.76024C188.657 4.59604 188.806 4.40502 188.898 4.18888H188.895Z" fill="#212121"/>
<path d="M192.311 1.03759L193.274 0.963867L193.773 7.4818L192.81 7.55553L192.311 1.03759Z" fill="#212121"/>
<path d="M196.694 3.83038L199.436 4.02307L199.379 4.8374L196.637 4.64471L196.495 6.68219L199.829 6.91677L199.772 7.73109L195.475 7.42949L195.934 0.908203L200.232 1.2098L200.175 2.02413L196.84 1.78955L196.698 3.82703L196.694 3.83038Z" fill="#212121"/>
<path d="M205.524 8.75865C205.536 8.80222 205.549 8.82568 205.568 8.83238C205.608 8.84746 205.635 8.83573 205.646 8.80054C205.657 8.77206 205.66 8.73687 205.653 8.69498C205.638 8.49391 205.677 8.25766 205.77 7.98789L207.404 3.28627L208.317 3.60295L206.173 9.77907L204.768 9.29148L203.912 2.86905C203.912 2.84894 203.907 2.83051 203.897 2.81376C203.887 2.797 203.872 2.78862 203.852 2.78862C203.818 2.78862 203.797 2.80538 203.787 2.83554C203.778 2.859 203.777 2.89083 203.783 2.93272C203.798 3.13379 203.76 3.37004 203.666 3.63981L202.032 8.34144L201.119 8.02476L203.264 1.84863L204.668 2.33622L205.524 8.75865Z" fill="#212121"/>
<path d="M213.782 7.4936L212.014 6.47151L209.153 11.4228L208.316 10.9402L211.178 5.98895L209.411 4.96685L209.819 4.25977L214.191 6.78651L213.782 7.4936Z" fill="#212121"/>
<path d="M215.318 14.1841L213.045 12.1851L211.618 13.0062L210.809 12.2941L216.911 8.95801L218.025 9.93989L215.49 16.4159L214.681 15.7038L215.314 14.1841H215.318ZM216.956 10.2834C217.03 10.1259 217.092 10.0069 217.144 9.92983C217.147 9.92481 217.156 9.91308 217.167 9.89465C217.179 9.87622 217.184 9.85778 217.184 9.84103C217.184 9.82427 217.176 9.80919 217.161 9.79579C217.142 9.77903 217.124 9.77568 217.104 9.78238C217.084 9.79076 217.068 9.79914 217.055 9.80919C217.043 9.81925 217.035 9.82595 217.03 9.83098C216.96 9.89297 216.851 9.97005 216.703 10.0622L213.784 11.7478L215.653 13.3915L216.955 10.2834H216.956Z" fill="#212121"/>
<path d="M221.569 14.2721C222.085 14.4916 222.531 14.8653 222.906 15.3964C223.271 15.9125 223.476 16.4168 223.519 16.9128C223.563 17.4088 223.491 17.8578 223.3 18.2583C223.109 18.6587 222.856 18.9905 222.541 19.2519L221.988 18.4711C222.197 18.2851 222.363 18.0539 222.485 17.7774C222.608 17.5009 222.658 17.1976 222.633 16.8692C222.609 16.5408 222.482 16.2158 222.254 15.8924C221.989 15.5187 221.669 15.259 221.294 15.1166C220.919 14.9742 220.523 14.939 220.108 15.0177C219.692 15.0965 219.293 15.2708 218.91 15.5422C218.526 15.8136 218.228 16.1337 218.017 16.4989C217.806 16.8642 217.705 17.2479 217.717 17.65C217.728 18.0522 217.866 18.4392 218.131 18.8129C218.36 19.1363 218.625 19.3641 218.927 19.4948C219.228 19.6255 219.53 19.6792 219.831 19.6557C220.133 19.6322 220.406 19.5518 220.652 19.4161L221.205 20.1969C220.853 20.408 220.458 20.537 220.017 20.584C219.577 20.6309 219.129 20.5504 218.675 20.3444C218.221 20.1383 217.812 19.778 217.447 19.2619C217.072 18.7308 216.866 18.1862 216.83 17.6283C216.795 17.0686 216.911 16.5408 217.181 16.0432C217.45 15.5455 217.839 15.1149 218.35 14.7547C218.861 14.3928 219.396 14.1682 219.954 14.0794C220.513 13.9906 221.051 14.056 221.566 14.2738L221.569 14.2721Z" fill="#212121"/>
<path d="M225.479 19.8555L225.896 20.7268L220.003 23.5551L219.586 22.6838L225.479 19.8555Z" fill="#212121"/>
<path d="M227.017 29.0293C226.58 29.3929 226.06 29.6442 225.457 29.7833C224.854 29.9223 224.276 29.9223 223.724 29.7866C223.171 29.6492 222.697 29.3795 222.3 28.9756C221.903 28.5718 221.632 28.0524 221.486 27.419C221.34 26.7857 221.359 26.2009 221.54 25.6631C221.72 25.1269 222.03 24.6762 222.468 24.3109C222.905 23.9473 223.425 23.6959 224.028 23.5569C224.631 23.4178 225.209 23.4178 225.76 23.5535C226.313 23.6909 226.787 23.9607 227.184 24.3645C227.582 24.7683 227.853 25.2877 227.999 25.9211C228.145 26.5545 228.126 27.1392 227.945 27.6771C227.764 28.2133 227.454 28.664 227.017 29.0293ZM223.932 28.8667C224.346 28.9555 224.782 28.9472 225.241 28.8416C225.7 28.736 226.095 28.5534 226.429 28.292C226.762 28.0306 227 27.7106 227.143 27.3319C227.285 26.9532 227.305 26.5444 227.203 26.1037C227.102 25.6631 226.905 25.3045 226.611 25.0247C226.318 24.7465 225.965 24.5622 225.551 24.4734C225.137 24.3846 224.701 24.393 224.242 24.4985C223.783 24.6041 223.388 24.7867 223.054 25.0481C222.721 25.3095 222.483 25.6279 222.34 26.0065C222.198 26.3852 222.178 26.7941 222.28 27.2347C222.382 27.6754 222.578 28.034 222.872 28.3138C223.165 28.5919 223.518 28.7763 223.932 28.8651V28.8667ZM230.003 26.6801L228.557 26.0216L228.424 25.4419L229.805 25.8105L230.004 26.6784L230.003 26.6801Z" fill="#212121"/>
<path d="M223.178 35.8506C223.141 35.8758 223.123 35.8976 223.123 35.916C223.123 35.9596 223.141 35.9813 223.178 35.9813C223.208 35.9813 223.243 35.9713 223.28 35.9529C223.466 35.8724 223.701 35.8322 223.986 35.8322H228.962V36.7957L222.426 36.799V35.3128L228.208 32.394C228.227 32.3873 228.242 32.3772 228.255 32.3621C228.267 32.347 228.27 32.3303 228.265 32.3119C228.253 32.2817 228.232 32.2649 228.2 32.2649C228.175 32.2649 228.144 32.275 228.108 32.2934C227.922 32.3739 227.687 32.4141 227.402 32.4141H222.426V31.4506L228.962 31.4473V32.9335L223.18 35.8523L223.178 35.8506Z" fill="#212121"/>
</g>
<defs>
<clipPath id="clip0_8_295">
<rect width="230.001" height="55.0891" fill="white" transform="translate(0 0.910156)"/>
</clipPath>
</defs>
</svg>
