<svg width="473" height="37" viewBox="0 0 473 37" fill="none" xmlns="http://www.w3.org/2000/svg">
<g clip-path="url(#clip0_20_32)">
<path d="M29.8137 36.0964H22.963V21.4452H6.85074V36.0964H0V0.771362H6.85074V15.4225H22.9669V0.771362H29.8176V36.0964H29.8137Z" fill="white"/>
<path d="M38.9886 24.4547C39.2245 26.4609 39.9639 28.0322 41.2027 29.1725C42.4454 30.3089 44.0736 30.877 46.0871 30.877C48.8085 30.877 50.6018 29.5408 51.4749 26.8645H58.0228C57.4172 29.7759 56.1154 32.1074 54.1216 33.8629C52.1277 35.6184 49.4299 36.4961 46.0399 36.4961C43.2516 36.4961 40.8527 35.9123 38.8391 34.7407C36.8256 33.569 35.2958 31.9546 34.2576 29.8974C33.2154 27.8402 32.6963 25.4891 32.6963 22.8481C32.6963 20.207 33.2351 17.7031 34.3087 15.6459C35.3823 13.5887 36.92 11.9978 38.9178 10.8771C40.9156 9.75645 43.2556 9.19611 45.9416 9.19611C48.1242 9.19611 50.1653 9.65457 52.0608 10.5754C53.9564 11.4963 55.5019 12.95 56.6935 14.9406C57.8852 16.9312 58.4829 19.4468 58.4829 22.4915C58.4829 23.0283 58.4318 23.6788 58.3335 24.4468H38.9965L38.9886 24.4547ZM50.3187 15.9751C49.3119 14.9367 47.9197 14.4194 46.1382 14.4194C42.3117 14.4194 40.0111 16.2925 39.2403 20.0385H52.0333C51.8996 18.3653 51.3294 17.0095 50.3226 15.9751H50.3187Z" fill="white"/>
<path d="M86.0468 20.4421V36.0964H79.6011V22.6482C79.6011 19.772 79.2157 17.7815 78.441 16.6765C77.6702 15.5714 76.4078 15.0189 74.6656 15.0189C73.4229 15.0189 72.2549 15.4539 71.1655 16.3238C70.0762 17.1937 69.1913 18.4163 68.5228 19.9876C67.8503 21.5589 67.516 23.3339 67.516 25.3049V36.0925H61.0703V9.6036H67.516V11.2611C67.516 12.0291 67.4491 12.6835 67.3154 13.2164C67.1817 13.7533 66.9811 14.3019 66.7098 14.874C66.5407 15.2736 66.4581 15.544 66.4581 15.6772C66.4581 15.979 66.5918 16.1475 66.8592 16.1788H67.0087C67.2446 16.1788 67.4452 15.979 67.6143 15.5754C68.3536 13.9374 69.4941 12.4641 71.0397 11.1592C72.5852 9.85439 74.3982 9.20392 76.4786 9.20392C79.432 9.20392 81.768 10.1561 83.4788 12.0644C85.1895 13.9727 86.0468 16.7627 86.0468 20.446V20.4421Z" fill="white"/>
<path d="M138.883 15.9241C139.956 17.997 140.495 20.305 140.495 22.8481C140.495 25.3912 139.956 27.6991 138.883 29.772C137.809 31.8449 136.264 33.4867 134.25 34.6897C132.237 35.8927 129.885 36.4961 127.199 36.4961C124.513 36.4961 122.161 35.8927 120.147 34.6897C118.134 33.4867 116.588 31.8449 115.515 29.772C114.441 27.6991 113.902 25.3912 113.902 22.8481C113.902 20.305 114.441 17.997 115.515 15.9241C116.588 13.8512 118.134 12.2094 120.147 11.0064C122.161 9.80346 124.513 9.20001 127.199 9.20001C129.885 9.20001 132.237 9.80346 134.25 11.0064C136.264 12.2094 137.809 13.8512 138.883 15.9241ZM134.049 22.8481C134.049 20.6067 133.436 18.7415 132.213 17.2525C130.986 15.7635 129.318 15.0189 127.203 15.0189C125.087 15.0189 123.416 15.7635 122.192 17.2525C120.965 18.7415 120.356 20.6067 120.356 22.8481C120.356 25.0894 120.969 26.9546 122.192 28.4437C123.419 29.9327 125.087 30.6772 127.203 30.6772C129.318 30.6772 130.99 29.9327 132.213 28.4437C133.44 26.9546 134.049 25.0894 134.049 22.8481Z" fill="white"/>
<path d="M95.9261 0.771362H89.4805V36.0964H95.9261V0.771362Z" fill="white"/>
<path d="M114.539 36.1238H107.909C107.87 35.8221 107.83 35.5165 107.787 35.2265C107.378 32.4562 105.943 29.196 103.78 27.2289C102.415 25.9907 100.606 25.2579 99.5952 24.4938C98.4429 23.62 97.0586 22.5855 97.0586 20.4852C97.0586 18.8747 98.0339 17.8912 99.1783 16.7587C101.109 14.8504 103.823 11.3277 105.152 9.57617H112.227C108.573 15.2815 104.24 18.9844 102.45 19.7877C102.199 19.9014 101.251 19.8308 101.267 20.4382C101.282 21.0534 102.033 20.881 102.439 20.928C104.259 21.1474 106.171 21.9311 107.095 22.515C111.472 25.3402 113.839 30.348 114.461 35.3362L114.524 35.8182C114.539 35.9162 114.551 36.0141 114.535 36.116L114.539 36.1238Z" fill="white"/>
<path d="M176.358 0.56366H175.595V35.7672H176.358V0.56366Z" fill="white"/>
<path d="M249.314 12.0059L249.25 12.0297L249.298 11.9821C249.298 11.9821 249.31 11.998 249.314 12.0059Z" fill="white"/>
<path d="M249.314 12.0059L249.25 12.0297L249.298 11.9821C249.298 11.9821 249.31 11.998 249.314 12.0059Z" fill="white"/>
<path d="M347.846 10.0385C347.98 9.72114 348.295 9.50171 348.664 9.50171C349.034 9.50171 349.341 9.72114 349.478 10.0385L362.11 35.9789H357.658L346.435 12.9735L347.846 10.0425V10.0385Z" fill="white"/>
<path d="M337.92 22.3896H350.807L344.366 35.9749L337.92 22.3896Z" fill="white"/>
<path d="M385.403 0.681238C384.915 0.681238 384.518 1.07309 384.518 1.56289V1.53155V25.5675L364.808 1.02215L364.788 0.994716C364.627 0.798792 364.379 0.673401 364.104 0.673401C363.616 0.673401 363.219 1.06917 363.219 1.55506V1.58641V35.975H367.206V10.3599L388.03 35.9358V1.56681C388.03 1.077 387.633 0.685156 387.145 0.685156H385.415L385.403 0.681238Z" fill="white"/>
<path d="M431.082 15.2384L440.937 1.15535L440.945 1.13576C441.098 0.865382 441.389 0.681213 441.72 0.681213H444.378C444.866 0.681213 445.263 1.07698 445.263 1.56287C445.263 1.70785 445.227 1.84892 445.165 1.97039V1.98998L433.087 19.3802V35.9828H429.084V19.3802L417.014 1.98998L417.007 1.97039C416.944 1.84892 416.908 1.70785 416.908 1.56287C416.908 1.07698 417.305 0.681213 417.793 0.681213H420.448C420.782 0.681213 421.073 0.865382 421.222 1.13576L421.23 1.15535L431.086 15.2384H431.082Z" fill="white"/>
<path d="M406.054 1.23373C406.188 0.916334 406.503 0.696899 406.872 0.696899C407.242 0.696899 407.533 0.904579 407.674 1.2063L409.098 4.15691L393.588 35.9867H389.132L406.054 1.23373Z" fill="white"/>
<path d="M410.352 10.0464C410.486 9.72896 410.801 9.50952 411.17 9.50952C411.54 9.50952 411.847 9.72896 411.984 10.0424L424.616 35.9867H420.164L408.944 12.9813L410.356 10.0503L410.352 10.0464Z" fill="white"/>
<path d="M400.422 22.3896H413.313L406.868 35.9749L400.422 22.3896Z" fill="white"/>
<path d="M454.438 1.23373C454.576 0.916334 454.886 0.696899 455.256 0.696899C455.626 0.696899 455.917 0.904579 456.058 1.2063L457.482 4.15691L441.971 35.9867H437.52L454.438 1.23373Z" fill="white"/>
<path d="M458.736 10.0464C458.87 9.72902 459.184 9.50958 459.554 9.50958C459.924 9.50958 460.23 9.72902 460.368 10.0425L473 35.9867H468.548L457.328 12.9814L458.74 10.0503L458.736 10.0464Z" fill="white"/>
<path d="M448.799 22.3896H461.686L455.241 35.9749L448.799 22.3896Z" fill="white"/>
<path d="M345.168 1.19062C345.027 0.892812 344.72 0.681214 344.366 0.681214H344.354L344.366 0.657703H343.804L211.457 0.56366V36.0024L326.626 35.971H331.082L346.592 4.14123L345.168 1.19062ZM240.48 31.453C233.24 31.453 227.373 25.6066 227.373 18.3927C227.373 11.1788 233.24 5.32853 240.48 5.32853C244.708 5.32853 248.468 7.32303 250.866 10.4186L249.297 11.9821C249.297 11.9821 249.309 11.9978 249.313 12.0056L249.25 12.0291L249.297 11.9821C247.323 9.26659 244.114 7.50328 240.496 7.50328C234.499 7.50328 229.638 12.3504 229.638 18.3261C229.638 24.3018 234.499 29.145 240.496 29.145C245.782 29.145 250.182 25.3872 251.154 20.4068H244.067V17.9656H253.576L253.588 18.0949C253.592 18.1929 253.592 18.2908 253.592 18.3927C253.592 25.6066 247.724 31.453 240.48 31.453ZM265.866 31.4177C265.866 31.4177 258.637 19.4899 258.606 19.439H257.359V31.3786H254.953V19.4233C254.953 19.3567 254.945 5.59498 254.945 5.59498H260.128C269.264 4.95627 269.291 18.6553 261.363 19.3998L268.544 31.3786L265.866 31.4177ZM268.414 25.207V5.58323H270.825V24.4781C270.825 30.7046 283 30.8652 283.213 24.5212V5.61849H285.58L285.624 25.207C285.104 33.7806 268.414 33.4867 268.414 25.207ZM294.425 19.7289H290.138L290.095 31.3786H287.645V5.58715H294.425C303.199 5.58715 303.199 19.7289 294.425 19.7289ZM314.69 31.4491C307.43 31.4491 301.543 25.587 301.543 18.3496C301.543 11.1122 307.43 5.24624 314.69 5.24624C321.95 5.24624 327.841 11.1122 327.841 18.3496C327.841 25.587 321.954 31.4491 314.69 31.4491Z" fill="white"/>
<path d="M249.314 12.0059L249.25 12.0297L249.298 11.9821C249.298 11.9821 249.31 11.998 249.314 12.0059Z" fill="white"/>
<path d="M249.314 12.0059L249.25 12.0297L249.298 11.9821C249.298 11.9821 249.31 11.998 249.314 12.0059Z" fill="white"/>
<path d="M325.339 18.3692C325.339 24.2509 320.553 29.0197 314.65 29.0197C308.747 29.0197 303.961 24.2509 303.961 18.3692C303.961 12.4876 308.747 7.7149 314.65 7.7149C320.553 7.7149 325.339 12.4837 325.339 18.3692Z" fill="white"/>
<path d="M294.224 17.6639H290.056V7.7619H294.224C300.454 7.7619 300.454 17.6639 294.224 17.6639Z" fill="white"/>
<path d="M347.846 10.0385C347.98 9.72114 348.295 9.50171 348.664 9.50171C349.034 9.50171 349.341 9.72114 349.478 10.0385L362.11 35.9789H357.658L346.435 12.9735L347.846 10.0425V10.0385Z" fill="white"/>
<path d="M337.92 22.3896H350.807L344.366 35.9749L337.92 22.3896Z" fill="white"/>
<path d="M385.403 0.681238C384.915 0.681238 384.518 1.07309 384.518 1.56289V1.53155V25.5675L364.808 1.02215L364.788 0.994716C364.627 0.798792 364.379 0.673401 364.104 0.673401C363.616 0.673401 363.219 1.06917 363.219 1.55506V1.58641V35.975H367.206V10.3599L388.03 35.9358V1.56681C388.03 1.077 387.633 0.685156 387.145 0.685156H385.415L385.403 0.681238Z" fill="white"/>
<path d="M431.082 15.2384L440.937 1.15535L440.945 1.13576C441.098 0.865382 441.389 0.681213 441.72 0.681213H444.378C444.866 0.681213 445.263 1.07698 445.263 1.56287C445.263 1.70785 445.227 1.84892 445.165 1.97039V1.98998L433.087 19.3802V35.9828H429.084V19.3802L417.014 1.98998L417.007 1.97039C416.944 1.84892 416.908 1.70785 416.908 1.56287C416.908 1.07698 417.305 0.681213 417.793 0.681213H420.448C420.782 0.681213 421.073 0.865382 421.222 1.13576L421.23 1.15535L431.086 15.2384H431.082Z" fill="white"/>
<path d="M406.054 1.23373C406.188 0.916334 406.503 0.696899 406.872 0.696899C407.242 0.696899 407.533 0.904579 407.674 1.2063L409.098 4.15691L393.588 35.9867H389.132L406.054 1.23373Z" fill="white"/>
<path d="M410.352 10.0464C410.486 9.72896 410.801 9.50952 411.17 9.50952C411.54 9.50952 411.847 9.72896 411.984 10.0424L424.616 35.9867H420.164L408.944 12.9813L410.356 10.0503L410.352 10.0464Z" fill="white"/>
<path d="M260.8 16.9351H257.402V7.7619H260.8C265.791 8.06362 265.834 16.9821 260.8 16.9351Z" fill="white"/>
<path d="M400.422 22.3896H413.313L406.868 35.9749L400.422 22.3896Z" fill="white"/>
<path d="M454.438 1.23373C454.576 0.916334 454.886 0.696899 455.256 0.696899C455.626 0.696899 455.917 0.904579 456.058 1.2063L457.482 4.15691L441.971 35.9867H437.52L454.438 1.23373Z" fill="white"/>
<path d="M458.736 10.0464C458.87 9.72902 459.184 9.50958 459.554 9.50958C459.924 9.50958 460.23 9.72902 460.368 10.0425L473 35.9867H468.548L457.328 12.9814L458.74 10.0503L458.736 10.0464Z" fill="white"/>
<path d="M448.799 22.3896H461.686L455.241 35.9749L448.799 22.3896Z" fill="white"/>
</g>
<defs>
<clipPath id="clip0_20_32">
<rect width="473" height="35.9363" fill="white" transform="translate(0 0.56366)"/>
</clipPath>
</defs>
</svg>
